<svg width="296" height="204" viewBox="0 0 296 204" fill="none" xmlns="http://www.w3.org/2000/svg">
<path d="M203 164.121V171.764L182 195.65V203.771M179.5 164.121V176.064L185 180.363L186.5 188.006L180.5 194.694V203.771M188 187.051L186.5 180.363L193.5 173.675V163.166" stroke="#0278C7" stroke-width="0.5"/>
<path d="M174 203.771L174 188.006L178 182.752L178 164.599" stroke="#0278C7" stroke-width="0.5"/>
<path d="M150 164.599V179.408L155.5 184.662V203.771" stroke="#0278C7" stroke-width="0.5"/>
<path d="M259 86.7324L264 89.6279V171.764H207L186 196.605V203.771" stroke="#0278C7" stroke-width="0.5"/>
<path d="M76.7119 39.4499L73.1525 35.6178H34L34 169.74L43.661 184.11H82.8136L94 190.817V203.771" stroke="#0278C7" stroke-width="0.5"/>
<path d="M161 162.21L155.5 167.465V179.885L160 184.185V196.127L157 198.994V203.771M164 163.166V188.006L171 194.694V203.771M166 163.166V186.573L171 191.35M152.5 203.771V188.006L141.5 178.452V159.344M138 163.166V184.185L132.5 189.439V196.127L138 198.994M138 198.994V203.771M138 198.994V188.006M141.5 181.796L148.5 188.006V193.261L141.5 197.56V203.771M75.5 139.758V167.465L101.5 184.185V193.739L106 199.471V203.771M110 203.771V189.439L118 181.796V163.166M122 171.287V188.006L113.5 196.127M125 162.21V188.006L118 194.694V197.56L122 201.382V203.771M206.5 176.064L188 197.56V203.771" stroke="#0278C7" stroke-width="0.5"/>
<path d="M37.5 168.42L46 181.318H82.5M73.5 156V169.376L97.5 185.14V203.771" stroke="#0278C7" stroke-width="0.5"/>
<path d="M20.5 108.707H32V132.592L25.5 138.803V152.178L32 156.478V164.599M30 110.14H16L1 119.694M16 112.051L5.5 118.739" stroke="#0278C7" stroke-width="0.5"/>
<path d="M7 113.962L15.5 108.707V94.8535L19.5 93.4204V80.5223" stroke="#0278C7" stroke-width="0.5"/>
<path d="M265 122.561H286.364L295 133.07" stroke="#0278C7" stroke-width="0.5"/>
<path d="M272.5 0V26.7516L282.5 33.4395V65.9236M275 0V21.0191" stroke="#0278C7" stroke-width="0.5"/>
<path d="M146 173.197V163.643" stroke="#0278C7" stroke-width="0.5"/>
<path d="M89 142.624V171.287L103.5 180.841V193.261" stroke="#0278C7" stroke-width="0.5"/>
</svg>
