<svg width="56" height="64" viewBox="0 0 56 64" fill="none" xmlns="http://www.w3.org/2000/svg">
<path d="M24.4002 63.25L1.08034 0.75H48C49.4125 0.75 50.4268 0.750583 51.2229 0.81563C52.0103 0.879962 52.518 1.00359 52.9295 1.21322C53.7291 1.62068 54.3793 2.27085 54.7868 3.07054C54.9964 3.48197 55.12 3.9897 55.1844 4.77708C55.2494 5.57322 55.25 6.58749 55.25 8V56C55.25 57.4125 55.2494 58.4268 55.1844 59.2229C55.12 60.0103 54.9964 60.518 54.7868 60.9295C54.3793 61.7291 53.7291 62.3793 52.9295 62.7868C52.518 62.9964 52.0103 63.12 51.2229 63.1844C50.4268 63.2494 49.4125 63.25 48 63.25H24.4002Z" fill="#039BE8" stroke="#039BE8" stroke-width="1.5"/>
<path d="M27 28.9657L32.9754 35L43 24" stroke="#C9EDFB" stroke-width="3" stroke-linecap="round" stroke-linejoin="round"/>
</svg>
